<?xml version="1.0" encoding="utf-8"?>
<!-- Generator: Adobe Illustrator 16.0.0, SVG Export Plug-In . SVG Version: 6.00 Build 0)  -->
<!DOCTYPE svg PUBLIC "-//W3C//DTD SVG 1.1//EN" "http://www.w3.org/Graphics/SVG/1.1/DTD/svg11.dtd">
<svg version="1.1" id="Layer_1" xmlns="http://www.w3.org/2000/svg" xmlns:xlink="http://www.w3.org/1999/xlink" x="0px" y="0px"
	 width="124.551px" height="124.549px" viewBox="0 0 124.551 124.549" enable-background="new 0 0 124.551 124.549"
	 xml:space="preserve">
<g>
	<circle cx="62.275" cy="62.273" r="62.275"/>
	<g>
		<path fill="#FFFFFF" d="M66.447,90.039H65.64v-7.53h-0.914v-0.753h0.914v-2.958h0.808v2.958h1.452v0.753h-1.452V90.039z"/>
		<path fill="#FFFFFF" d="M70.142,75.248v7.799h0.036c0.483-0.914,1.38-1.471,2.456-1.471c2.134,0,2.725,1.327,2.725,3.461v5.002
			h-0.807v-5.002c0-1.488-0.179-2.708-1.99-2.708c-2.079,0-2.42,1.937-2.42,3.622v4.088h-0.807V75.248H70.142z"/>
		<path fill="#FFFFFF" d="M79.61,78.995c0,0.412-0.323,0.734-0.735,0.734s-0.735-0.322-0.735-0.734c0-0.395,0.323-0.735,0.735-0.735
			S79.61,78.601,79.61,78.995z M79.27,90.039h-0.807v-8.283h0.807V90.039z"/>
		<path fill="#FFFFFF" d="M83.196,83.047h0.036c0.483-0.914,1.38-1.471,2.456-1.471c2.134,0,2.725,1.327,2.725,3.461v5.002h-0.807
			v-5.002c0-1.488-0.179-2.708-1.99-2.708c-2.079,0-2.42,1.937-2.42,3.622v4.088H82.39v-8.283h0.807V83.047z"/>
		<path fill="#FFFFFF" d="M98.617,89.645c0,1.273-0.036,2.421-0.824,3.515c-0.771,1.058-1.99,1.596-3.3,1.596
			c-2.169,0-3.962-1.273-4.087-3.551h0.807c0.089,1.722,1.542,2.797,3.209,2.797c1.04,0,2.044-0.358,2.653-1.236
			c0.646-0.95,0.735-2.026,0.735-3.138v-1.022h-0.036c-0.735,0.986-1.972,1.614-3.227,1.614c-2.403,0-4.017-2.026-4.017-4.339
			c0-2.385,1.703-4.304,4.124-4.304c1.345,0,2.349,0.574,3.119,1.614h0.036v-1.435h0.807V89.645z M91.338,85.844
			c0,1.9,1.255,3.621,3.264,3.621c2.115,0,3.263-1.721,3.263-3.711c0-1.918-1.309-3.425-3.316-3.425
			C92.646,82.329,91.338,84.051,91.338,85.844z"/>
		<path fill="#FFFFFF" d="M104.895,83.262c-0.269-0.573-0.807-0.933-1.452-0.933c-0.699,0-1.416,0.574-1.416,1.291
			c0,1.99,4.034,1.022,4.034,4.017c0,1.523-1.184,2.582-2.672,2.582c-1.38,0-2.51-0.843-2.851-2.188l0.789-0.251
			c0.305,0.985,0.968,1.685,2.062,1.685c1.04,0,1.865-0.824,1.865-1.864c0-1.021-0.789-1.345-1.614-1.632
			c-1.129-0.412-2.42-0.896-2.42-2.295c0-1.255,1.058-2.098,2.259-2.098c0.843,0,1.757,0.557,2.115,1.327L104.895,83.262z"/>
	</g>
	<g>
		<path fill="#FFFFFF" d="M20.589,36.055c0,0.412-0.323,0.734-0.735,0.734s-0.735-0.322-0.735-0.734
			c0-0.395,0.323-0.735,0.735-0.735S20.589,35.66,20.589,36.055z M20.248,47.099h-0.807v-8.283h0.807V47.099z"/>
		<path fill="#FFFFFF" d="M29.771,47.099h-0.807V32.308h0.807V47.099z"/>
		<path fill="#FFFFFF" d="M34.021,36.055c0,0.412-0.323,0.734-0.735,0.734s-0.735-0.322-0.735-0.734
			c0-0.395,0.323-0.735,0.735-0.735S34.021,35.66,34.021,36.055z M33.68,47.099h-0.807v-8.283h0.807V47.099z"/>
		<path fill="#FFFFFF" d="M37.607,42.329l3.406-3.514h1.04l-3.479,3.586l4.644,4.697h-1.058l-4.105-4.142l-0.448,0.466v3.676h-0.807
			V32.308h0.807V42.329z"/>
		<path fill="#FFFFFF" d="M44.494,43.028c-0.054,2.098,1.398,3.497,3.316,3.497c1.291,0,2.331-0.771,2.923-1.883l0.681,0.395
			c-0.753,1.434-2.079,2.241-3.711,2.241c-2.456,0-4.016-1.99-4.016-4.339c0-2.313,1.595-4.304,4.016-4.304
			c2.51,0,3.998,2.009,3.98,4.393H44.494z M50.877,42.275c-0.197-1.523-1.453-2.887-3.156-2.887c-1.685,0-3.083,1.327-3.227,2.887
			H50.877z"/>
	</g>
	<g>
		<path fill="#DCC187" d="M52.174,72.633c0.928-1.424,1.625-3.327,2.089-5.711c0.464-2.383,0.975-4.627,1.532-6.732
			c0.061-0.371,0.232-0.618,0.511-0.742s0.541-0.154,0.789-0.093c0.247,0.062,0.465,0.217,0.65,0.464
			c0.186,0.248,0.216,0.589,0.093,1.021c-0.186,0.867-0.45,2.168-0.789,3.9c-0.342,1.733-0.775,3.481-1.301,5.246
			c-0.526,1.764-1.207,3.343-2.043,4.735c-0.835,1.393-1.842,2.213-3.018,2.461c-1.362,0.247-2.554-0.14-3.575-1.161
			s-1.919-2.384-2.692-4.085c-0.774-1.702-1.472-3.575-2.089-5.618c-0.62-2.043-1.224-3.946-1.812-5.711
			c-0.589-1.764-1.207-3.218-1.856-4.364c-0.65-1.145-1.409-1.718-2.275-1.718c-0.682,0-1.27,0.682-1.765,2.043
			c-0.496,1.362-0.914,2.895-1.253,4.597c-0.341,1.703-0.65,3.343-0.929,4.921c-0.278,1.579-0.573,2.646-0.882,3.204
			c-0.311,0.557-0.743,0.944-1.301,1.16c-0.557,0.218-1.114,0.279-1.671,0.186c-0.558-0.093-1.068-0.309-1.532-0.649
			c-0.464-0.34-0.759-0.758-0.882-1.254c-0.62-2.166-1.038-4.472-1.254-6.918c-0.218-2.444-0.511-4.875-0.882-7.289
			c0-0.681,0.246-1.129,0.742-1.347c0.495-0.216,1.053-0.278,1.672-0.186c0.618,0.093,1.191,0.295,1.718,0.604
			c0.525,0.311,0.789,0.65,0.789,1.021c0,1.054,0.077,2.136,0.232,3.25c0.153,1.114,0.325,2.229,0.511,3.343
			c0.246-0.804,0.571-1.718,0.975-2.739c0.402-1.021,0.866-2.011,1.394-2.971c0.524-0.96,1.145-1.779,1.856-2.461
			c0.711-0.681,1.532-1.052,2.461-1.114c1.672-0.124,3.142,0.418,4.411,1.625c1.268,1.207,2.397,2.725,3.389,4.55
			c0.989,1.826,1.857,3.776,2.601,5.85c0.742,2.075,1.423,3.9,2.042,5.479c0.618,1.579,1.191,2.724,1.719,3.436
			C51.073,73.575,51.616,73.499,52.174,72.633z"/>
		<path fill="#DCC187" d="M55.329,54.896c0-0.494,0.247-0.85,0.743-1.067c0.495-0.216,1.036-0.325,1.625-0.325
			c0.588,0,1.145,0.125,1.671,0.372c0.525,0.248,0.851,0.589,0.976,1.021c0.061,1.611,0.107,3.359,0.14,5.247
			c0.03,1.889,0.106,3.668,0.231,5.339c0.124,1.672,0.325,3.097,0.604,4.271c0.279,1.177,0.758,1.857,1.439,2.043
			c0.804-0.186,1.562-0.743,2.275-1.672c0.711-0.928,1.346-1.996,1.903-3.203c0.557-1.207,1.021-2.429,1.393-3.668
			c0.372-1.237,0.65-2.259,0.836-3.064c0.061-0.371,0.232-0.618,0.511-0.742s0.557-0.154,0.836-0.093
			c0.278,0.062,0.511,0.217,0.696,0.464c0.186,0.248,0.216,0.589,0.093,1.021c-0.806,3.405-2.168,6.593-4.086,9.564
			c-0.496,0.682-1.084,1.332-1.764,1.95c-0.683,0.617-1.439,1.098-2.275,1.438c-0.836,0.34-1.703,0.465-2.6,0.372
			c-0.898-0.093-1.75-0.543-2.554-1.347c-0.868-0.929-1.502-2.29-1.903-4.086c-0.404-1.795-0.65-3.636-0.743-5.524
			c-0.093-1.888-0.125-3.622-0.093-5.2C55.313,56.429,55.329,55.394,55.329,54.896z M58.579,46.54c0.495,0,0.866,0.139,1.114,0.418
			c0.247,0.278,0.386,0.573,0.418,0.882c0.03,0.311-0.078,0.604-0.325,0.882c-0.248,0.279-0.589,0.418-1.021,0.418
			c-1.053,0.125-1.826,0.047-2.321-0.232c-0.496-0.278-0.742-0.587-0.742-0.928c0-0.34,0.231-0.665,0.696-0.976
			C56.861,46.695,57.589,46.54,58.579,46.54z"/>
		<path fill="#DCC187" d="M87.643,60.84c-0.496,1.796-1.224,3.482-2.183,5.061c-0.96,1.579-2.074,2.925-3.343,4.039
			c-1.27,1.114-2.616,1.918-4.039,2.415c-1.425,0.494-2.817,0.557-4.179,0.186c-1.239-0.372-2.244-1.099-3.018-2.183
			c-0.775-1.082-1.347-2.352-1.718-3.807c-0.372-1.454-0.527-2.986-0.465-4.597c0.062-1.609,0.278-3.064,0.65-4.364
			c0.557-1.857,1.314-2.986,2.274-3.39c0.959-0.401,1.888-0.371,2.786,0.093c0.896,0.465,1.625,1.224,2.182,2.275
			c0.558,1.054,0.743,2.105,0.558,3.157c-0.125,0.682-0.496,0.991-1.114,0.929c-0.619-0.062-0.929-0.372-0.929-0.929
			c0-1.052-0.278-1.95-0.836-2.693c-0.311,0.558-0.526,1.456-0.649,2.693c-0.125,1.239-0.125,2.507,0,3.807
			c0.123,1.301,0.355,2.508,0.696,3.622c0.34,1.114,0.85,1.856,1.532,2.229c0.866,0.496,1.811,0.511,2.832,0.046
			c1.021-0.464,1.996-1.19,2.925-2.182c0.929-0.989,1.748-2.12,2.461-3.39c0.711-1.268,1.222-2.491,1.532-3.668
			c0.061-0.371,0.231-0.618,0.511-0.742c0.278-0.124,0.557-0.154,0.835-0.093c0.279,0.062,0.495,0.217,0.65,0.464
			C87.75,60.066,87.766,60.407,87.643,60.84z"/>
		<path fill="#DCC187" d="M90.985,52.111c1.052,0.125,1.841,0.434,2.367,0.929c0.525,0.496,0.913,1.084,1.161,1.764
			c0.246,0.683,0.293,1.439,0.14,2.275c-0.155,0.836-0.435,1.657-0.836,2.461c-0.403,0.805-0.898,1.563-1.486,2.274
			c-0.589,0.713-1.223,1.347-1.903,1.904c0.618,2.042,1.439,3.854,2.461,5.432c1.021,1.579,2.213,2.399,3.575,2.461
			c0.866-0.618,1.686-1.5,2.46-2.646c0.773-1.145,1.347-2.09,1.719-2.832c0.617-1.238,1.035-2.29,1.253-3.157
			c0.217-0.866,0.479-1.795,0.789-2.786c0.062-0.371,0.232-0.618,0.511-0.742c0.279-0.124,0.542-0.154,0.79-0.093
			c0.246,0.062,0.464,0.217,0.649,0.464c0.186,0.248,0.217,0.589,0.093,1.021c-0.371,1.61-0.882,3.235-1.532,4.875
			c-0.649,1.641-1.501,3.203-2.553,4.689c-0.683,0.867-1.425,1.655-2.229,2.367c-0.805,0.711-1.671,1.161-2.6,1.347
			c-1.981,0.371-3.699,0.077-5.153-0.882c-1.455-0.961-2.632-2.275-3.528-3.946c-0.898-1.672-1.518-3.529-1.857-5.571
			c-0.341-2.043-0.357-3.947-0.047-5.711c0.31-1.765,0.929-3.218,1.857-4.364C88.014,52.499,89.313,51.988,90.985,52.111z
			 M89.964,61.676c0.866-0.743,1.625-1.687,2.274-2.832c0.65-1.146,0.851-2.15,0.604-3.019c-0.124-0.494-0.434-0.975-0.928-1.439
			c-0.497-0.464-1.084-0.634-1.765-0.51c-0.434,0.867-0.65,1.996-0.65,3.389S89.653,60.129,89.964,61.676z"/>
	</g>
	<circle cx="62.275" cy="62.273" r="62.275"/>
	<g>
		<path fill="#FFFFFF" d="M66.447,90.039H65.64v-7.53h-0.914v-0.753h0.914v-2.958h0.808v2.958h1.452v0.753h-1.452V90.039z"/>
		<path fill="#FFFFFF" d="M70.142,75.248v7.799h0.036c0.483-0.914,1.38-1.471,2.456-1.471c2.134,0,2.725,1.327,2.725,3.461v5.002
			h-0.807v-5.002c0-1.488-0.179-2.708-1.99-2.708c-2.079,0-2.42,1.937-2.42,3.622v4.088h-0.807V75.248H70.142z"/>
		<path fill="#FFFFFF" d="M79.61,78.995c0,0.412-0.323,0.734-0.735,0.734s-0.735-0.322-0.735-0.734c0-0.395,0.323-0.735,0.735-0.735
			S79.61,78.601,79.61,78.995z M79.27,90.039h-0.807v-8.283h0.807V90.039z"/>
		<path fill="#FFFFFF" d="M83.196,83.047h0.036c0.483-0.914,1.38-1.471,2.456-1.471c2.134,0,2.725,1.327,2.725,3.461v5.002h-0.807
			v-5.002c0-1.488-0.179-2.708-1.99-2.708c-2.079,0-2.42,1.937-2.42,3.622v4.088H82.39v-8.283h0.807V83.047z"/>
		<path fill="#FFFFFF" d="M98.617,89.645c0,1.273-0.036,2.421-0.824,3.515c-0.771,1.058-1.99,1.596-3.3,1.596
			c-2.169,0-3.962-1.273-4.087-3.551h0.807c0.089,1.722,1.542,2.797,3.209,2.797c1.04,0,2.044-0.358,2.653-1.236
			c0.646-0.95,0.735-2.026,0.735-3.138v-1.022h-0.036c-0.735,0.986-1.972,1.614-3.227,1.614c-2.403,0-4.017-2.026-4.017-4.339
			c0-2.385,1.703-4.304,4.124-4.304c1.345,0,2.349,0.574,3.119,1.614h0.036v-1.435h0.807V89.645z M91.338,85.844
			c0,1.9,1.255,3.621,3.264,3.621c2.115,0,3.263-1.721,3.263-3.711c0-1.918-1.309-3.425-3.316-3.425
			C92.646,82.329,91.338,84.051,91.338,85.844z"/>
		<path fill="#FFFFFF" d="M104.895,83.262c-0.269-0.573-0.807-0.933-1.452-0.933c-0.699,0-1.416,0.574-1.416,1.291
			c0,1.99,4.034,1.022,4.034,4.017c0,1.523-1.184,2.582-2.672,2.582c-1.38,0-2.51-0.843-2.851-2.188l0.789-0.251
			c0.305,0.985,0.968,1.685,2.062,1.685c1.04,0,1.865-0.824,1.865-1.864c0-1.021-0.789-1.345-1.614-1.632
			c-1.129-0.412-2.42-0.896-2.42-2.295c0-1.255,1.058-2.098,2.259-2.098c0.843,0,1.757,0.557,2.115,1.327L104.895,83.262z"/>
	</g>
	<g>
		<path fill="#FFFFFF" d="M20.589,36.055c0,0.412-0.323,0.734-0.735,0.734s-0.735-0.322-0.735-0.734
			c0-0.395,0.323-0.735,0.735-0.735S20.589,35.66,20.589,36.055z M20.248,47.099h-0.807v-8.283h0.807V47.099z"/>
		<path fill="#FFFFFF" d="M29.771,47.099h-0.807V32.308h0.807V47.099z"/>
		<path fill="#FFFFFF" d="M34.021,36.055c0,0.412-0.323,0.734-0.735,0.734s-0.735-0.322-0.735-0.734
			c0-0.395,0.323-0.735,0.735-0.735S34.021,35.66,34.021,36.055z M33.68,47.099h-0.807v-8.283h0.807V47.099z"/>
		<path fill="#FFFFFF" d="M37.607,42.329l3.406-3.514h1.04l-3.479,3.586l4.644,4.697h-1.058l-4.105-4.142l-0.448,0.466v3.676h-0.807
			V32.308h0.807V42.329z"/>
		<path fill="#FFFFFF" d="M44.494,43.028c-0.054,2.098,1.398,3.497,3.316,3.497c1.291,0,2.331-0.771,2.923-1.883l0.681,0.395
			c-0.753,1.434-2.079,2.241-3.711,2.241c-2.456,0-4.016-1.99-4.016-4.339c0-2.313,1.595-4.304,4.016-4.304
			c2.51,0,3.998,2.009,3.98,4.393H44.494z M50.877,42.275c-0.197-1.523-1.453-2.887-3.156-2.887c-1.685,0-3.083,1.327-3.227,2.887
			H50.877z"/>
	</g>
	<g>
		<path fill="#E3D4A8" d="M56.444,48.907c0.495,0.279,1.269,0.357,2.321,0.232c0.433,0,0.773-0.139,1.021-0.418
			c0.247-0.278,0.355-0.571,0.325-0.882c-0.032-0.309-0.171-0.604-0.418-0.882c-0.248-0.279-0.619-0.418-1.114-0.418
			c-0.99,0-1.718,0.155-2.182,0.464c-0.465,0.311-0.696,0.636-0.696,0.976C55.702,48.32,55.948,48.629,56.444,48.907z"/>
		<path fill="#E3D4A8" d="M104.636,59.818c-0.186-0.247-0.403-0.402-0.649-0.464c-0.248-0.062-0.511-0.031-0.79,0.093
			c-0.278,0.124-0.449,0.371-0.511,0.742c-0.311,0.991-0.572,1.92-0.789,2.786c-0.218,0.867-0.636,1.919-1.253,3.157
			c-0.372,0.742-0.945,1.688-1.719,2.832c-0.774,1.146-1.594,2.028-2.46,2.646c-1.362-0.062-2.554-0.882-3.575-2.461
			c-1.021-1.578-1.843-3.39-2.461-5.432c0.681-0.558,1.314-1.191,1.903-1.904c0.588-0.711,1.083-1.47,1.486-2.274
			c0.401-0.804,0.681-1.625,0.836-2.461c0.153-0.836,0.106-1.593-0.14-2.275c-0.248-0.68-0.636-1.268-1.161-1.764
			c-0.526-0.495-1.315-0.804-2.367-0.929c-1.672-0.123-2.972,0.388-3.9,1.532c-0.929,1.146-1.548,2.6-1.857,4.364
			c-0.21,1.195-0.258,2.461-0.169,3.784c-0.271,0.676-0.598,1.363-0.991,2.065c-0.713,1.27-1.532,2.4-2.461,3.39
			c-0.929,0.991-1.903,1.718-2.925,2.182c-1.021,0.465-1.966,0.45-2.832-0.046c-0.683-0.372-1.192-1.114-1.532-2.229
			c-0.341-1.114-0.573-2.321-0.696-3.622c-0.125-1.3-0.125-2.567,0-3.807c0.123-1.237,0.339-2.136,0.649-2.693
			c0.558,0.743,0.836,1.642,0.836,2.693c0,0.557,0.31,0.867,0.929,0.929c0.618,0.062,0.989-0.247,1.114-0.929
			c0.186-1.052,0-2.104-0.558-3.157c-0.557-1.052-1.285-1.811-2.182-2.275c-0.898-0.464-1.827-0.494-2.786-0.093
			c-0.96,0.403-1.718,1.532-2.274,3.39c-0.372,1.3-0.589,2.755-0.65,4.364c0,0.009,0,0.017,0,0.025
			c-0.112,0.398-0.232,0.816-0.37,1.274c-0.371,1.239-0.836,2.461-1.393,3.668c-0.558,1.207-1.192,2.275-1.903,3.203
			c-0.713,0.929-1.472,1.486-2.275,1.672c-0.682-0.186-1.16-0.866-1.439-2.043c-0.278-1.175-0.479-2.6-0.604-4.271
			c-0.125-1.671-0.201-3.45-0.231-5.339c-0.032-1.888-0.079-3.636-0.14-5.247c-0.125-0.432-0.45-0.772-0.976-1.021
			c-0.526-0.247-1.083-0.372-1.671-0.372c-0.589,0-1.13,0.109-1.625,0.325c-0.496,0.218-0.743,0.573-0.743,1.067
			c0,0.497-0.016,1.532-0.046,3.111c-0.026,1.259-0.009,2.622,0.046,4.079c-0.376,1.55-0.737,3.146-1.066,4.835
			c-0.464,2.384-1.161,4.287-2.089,5.711c-0.558,0.866-1.101,0.942-1.625,0.231c-0.527-0.712-1.101-1.856-1.719-3.436
			c-0.619-1.578-1.3-3.403-2.042-5.479c-0.743-2.073-1.611-4.023-2.601-5.85c-0.991-1.825-2.121-3.343-3.389-4.55
			c-1.27-1.207-2.739-1.749-4.411-1.625c-0.929,0.062-1.75,0.434-2.461,1.114c-0.712,0.682-1.332,1.501-1.856,2.461
			c-0.527,0.96-0.991,1.949-1.394,2.971c-0.403,1.021-0.729,1.936-0.975,2.739c-0.186-1.114-0.357-2.229-0.511-3.343
			c-0.155-1.114-0.232-2.196-0.232-3.25c0-0.371-0.264-0.711-0.789-1.021c-0.526-0.309-1.1-0.511-1.718-0.604
			c-0.619-0.093-1.177-0.03-1.672,0.186c-0.496,0.218-0.742,0.666-0.742,1.347c0.371,2.414,0.664,4.845,0.882,7.289
			c0.216,2.446,0.634,4.752,1.254,6.918c0.123,0.496,0.418,0.914,0.882,1.254c0.464,0.341,0.975,0.557,1.532,0.649
			c0.557,0.094,1.114,0.032,1.671-0.186c0.558-0.216,0.99-0.604,1.301-1.16c0.309-0.558,0.604-1.625,0.882-3.204
			c0.278-1.578,0.588-3.218,0.929-4.921c0.339-1.702,0.757-3.234,1.253-4.597c0.495-1.361,1.083-2.043,1.765-2.043
			c0.866,0,1.625,0.573,2.275,1.718c0.649,1.146,1.268,2.601,1.856,4.364c0.588,1.765,1.191,3.668,1.812,5.711
			c0.617,2.043,1.314,3.916,2.089,5.618c0.773,1.701,1.671,3.063,2.692,4.085s2.213,1.408,3.575,1.161
			c1.176-0.248,2.183-1.068,3.018-2.461c0.836-1.393,1.517-2.972,2.043-4.735c0.131-0.44,0.239-0.876,0.359-1.314
			c0.004,0.02,0.008,0.04,0.012,0.061c0.401,1.796,1.035,3.157,1.903,4.086c0.804,0.804,1.655,1.254,2.554,1.347
			c0.896,0.093,1.764-0.032,2.6-0.372c0.836-0.341,1.593-0.821,2.275-1.438c0.68-0.618,1.268-1.269,1.764-1.95
			c0.765-1.186,1.416-2.415,2.005-3.669c0.371,1.376,0.921,2.587,1.662,3.622c0.773,1.084,1.778,1.811,3.018,2.183
			c1.361,0.371,2.754,0.309,4.179-0.186c1.423-0.497,2.77-1.301,4.039-2.415c1.269-1.114,2.383-2.46,3.343-4.039
			c0.075-0.123,0.139-0.251,0.211-0.376c0.354,1.343,0.836,2.603,1.461,3.766c0.896,1.671,2.073,2.985,3.528,3.946
			c1.454,0.959,3.172,1.253,5.153,0.882c0.929-0.186,1.795-0.636,2.6-1.347c0.805-0.712,1.547-1.5,2.229-2.367
			c1.052-1.486,1.903-3.049,2.553-4.689c0.65-1.64,1.161-3.265,1.532-4.875C104.853,60.407,104.821,60.066,104.636,59.818z
			 M89.5,57.265c0-1.393,0.217-2.521,0.65-3.389c0.681-0.124,1.268,0.046,1.765,0.51c0.494,0.465,0.804,0.945,0.928,1.439
			c0.247,0.868,0.047,1.873-0.604,3.019c-0.649,1.146-1.408,2.089-2.274,2.832C89.654,60.129,89.5,58.657,89.5,57.265z"/>
	</g>
</g>
</svg>
