<?xml version="1.0" encoding="utf-8"?>
<!-- Generator: Adobe Illustrator 16.0.0, SVG Export Plug-In . SVG Version: 6.00 Build 0)  -->
<!DOCTYPE svg PUBLIC "-//W3C//DTD SVG 1.1//EN" "http://www.w3.org/Graphics/SVG/1.1/DTD/svg11.dtd">
<svg version="1.1" id="Layer_1" xmlns="http://www.w3.org/2000/svg" xmlns:xlink="http://www.w3.org/1999/xlink" x="0px" y="0px"
	 width="86.834px" height="86.834px" viewBox="5.499 3.574 86.834 86.834" enable-background="new 5.499 3.574 86.834 86.834"
	 xml:space="preserve">
<circle cx="48.916" cy="46.991" r="43.417"/>
<circle fill="none" stroke="#DBC087" stroke-width="0.7209" stroke-miterlimit="10" cx="48.916" cy="46.991" r="38.44"/>
<g>
	<path fill="#E3D4A8" d="M48.915,85.792c-21.395,0-38.8-17.406-38.8-38.801c0-21.396,17.405-38.802,38.8-38.802
		c21.396,0,38.802,17.406,38.802,38.802C87.717,68.385,70.312,85.792,48.915,85.792z M48.915,8.91
		c-20.997,0-38.079,17.083-38.079,38.081c0,20.998,17.082,38.082,38.079,38.082c20.998,0,38.081-17.084,38.081-38.082
		C86.996,25.993,69.913,8.91,48.915,8.91z"/>
</g>
<path fill="#E3D4A8" d="M27.547,28.988c1.788,2.649,7.766,7.616,13.097,9.156s7.118,1.506,7.914,1.522
	c-0.197-0.396-0.313-2.565-0.265-3.112c0.049-0.547,0.313-3.361,2.269-5.678c1.955-2.319,4.801-3.728,8.063-3.728
	s6.092,1.904,7.302,3.196c0.495,0.034,2.682-0.661,3.129-0.843c0.446-0.183,2.748-1.191,3.328-1.591
	c0,0.481-1.109,2.418-1.656,3.146c-0.545,0.729-2.416,2.235-2.765,2.449c0.763,0.066,2.716-0.446,3.625-0.745
	c0.911-0.298,2.164-0.826,2.164-0.826s-1.649,2.285-2.544,3.128c-0.895,0.845-2.518,2.137-2.518,2.137s0.033,4.09-0.539,6.872
	c-0.569,2.779-2.532,9.635-7.6,14.776c-5.064,5.141-11.523,8.632-21.83,8.632c-8.113,0-14.643-4.566-14.643-4.566
	s2.127,0.215,3.615,0.1c1.49-0.116,4.189-0.299,6.938-1.623c2.748-1.325,4.307-2.436,4.504-2.648
	c-0.398,0.084-2.715-0.396-3.494-0.714c-0.777-0.312-3.129-1.687-4.188-3.112c-1.06-1.424-1.756-3.095-1.806-3.326
	c0.447,0.199,1.375,0.231,1.921,0.231c0.547,0,1.986-0.116,2.649-0.364c-0.514-0.033-3.792-1.06-5.415-3.063
	c-1.623-2.003-2.715-3.989-2.715-7.035c0.662,0.462,2.996,1.241,4.62,1.226c-0.911-0.398-3.263-2.502-4.124-5.466
	c-0.861-2.962-0.264-5.38,0.431-7.102C27.266,29.402,27.547,28.988,27.547,28.988z"/>
</svg>
