<?xml version="1.0" encoding="utf-8"?>
<!-- Generator: Adobe Illustrator 16.0.0, SVG Export Plug-In . SVG Version: 6.00 Build 0)  -->
<!DOCTYPE svg PUBLIC "-//W3C//DTD SVG 1.1//EN" "http://www.w3.org/Graphics/SVG/1.1/DTD/svg11.dtd">
<svg version="1.1" id="Layer_1" xmlns="http://www.w3.org/2000/svg" xmlns:xlink="http://www.w3.org/1999/xlink" x="0px" y="0px"
	 width="86.833px" height="86.832px" viewBox="0 0 86.833 86.832" enable-background="new 0 0 86.833 86.832" xml:space="preserve">
<circle cx="43.417" cy="43.416" r="43.417"/>
<circle fill="none" stroke="#DBC087" stroke-width="0.7209" stroke-miterlimit="10" cx="43.417" cy="43.416" r="38.44"/>
<path fill="#FFFFFF" d="M22.048,25.413c1.788,2.649,7.766,7.616,13.097,9.156s7.118,1.506,7.914,1.522
	c-0.198-0.396-0.314-2.565-0.265-3.112s0.313-3.361,2.269-5.678c1.954-2.319,4.8-3.728,8.062-3.728s6.092,1.904,7.303,3.196
	c0.494,0.034,2.682-0.661,3.128-0.843c0.446-0.183,2.749-1.191,3.329-1.591c0,0.481-1.11,2.418-1.656,3.146
	c-0.546,0.729-2.417,2.235-2.766,2.449c0.763,0.066,2.716-0.446,3.625-0.745c0.912-0.298,2.164-0.826,2.164-0.826
	s-1.649,2.285-2.543,3.128c-0.895,0.845-2.518,2.137-2.518,2.137s0.033,4.09-0.539,6.872c-0.57,2.779-2.533,9.635-7.6,14.775
	c-5.065,5.142-11.523,8.633-21.83,8.633c-8.113,0-14.643-4.566-14.643-4.566s2.127,0.215,3.615,0.1
	c1.49-0.117,4.189-0.299,6.938-1.623c2.748-1.325,4.307-2.436,4.504-2.649c-0.398,0.084-2.715-0.396-3.494-0.713
	c-0.777-0.312-3.129-1.687-4.188-3.112c-1.06-1.424-1.756-3.095-1.806-3.326c0.447,0.198,1.375,0.231,1.921,0.231
	c0.547,0,1.986-0.116,2.649-0.364c-0.514-0.033-3.792-1.061-5.415-3.064c-1.623-2.002-2.715-3.988-2.715-7.034
	c0.662,0.462,2.996,1.241,4.62,1.226c-0.911-0.398-3.263-2.502-4.124-5.466c-0.861-2.962-0.264-5.38,0.431-7.102
	C21.767,25.827,22.048,25.413,22.048,25.413z"/>
<g>
	<path fill="#E3D4A8" d="M43.416,82.218c-21.395,0-38.8-17.406-38.8-38.801c0-21.396,17.405-38.802,38.8-38.802
		c21.397,0,38.801,17.406,38.801,38.802C82.217,64.811,64.813,82.218,43.416,82.218z M43.416,5.336
		c-20.997,0-38.079,17.083-38.079,38.081s17.082,38.082,38.079,38.082c20.999,0,38.081-17.084,38.081-38.082
		S64.415,5.336,43.416,5.336z"/>
</g>
</svg>
