<?xml version="1.0" encoding="utf-8"?>
<!-- Generator: Adobe Illustrator 16.0.0, SVG Export Plug-In . SVG Version: 6.00 Build 0)  -->
<!DOCTYPE svg PUBLIC "-//W3C//DTD SVG 1.1//EN" "http://www.w3.org/Graphics/SVG/1.1/DTD/svg11.dtd">
<svg version="1.1" id="Layer_1" xmlns="http://www.w3.org/2000/svg" xmlns:xlink="http://www.w3.org/1999/xlink" x="0px" y="0px"
	 width="86.834px" height="86.832px" viewBox="0 0 86.834 86.832" enable-background="new 0 0 86.834 86.832" xml:space="preserve">
<circle cx="43.417" cy="43.416" r="43.417"/>
<circle fill="none" stroke="#DBC087" stroke-width="0.7209" stroke-miterlimit="10" cx="43.417" cy="43.416" r="38.44"/>
<circle cx="43.417" cy="43.416" r="43.417"/>
<circle fill="none" stroke="#E3D4A8" stroke-width="0.7209" stroke-miterlimit="10" cx="43.417" cy="43.416" r="38.44"/>
<g>
	<path fill="#FFFFFF" d="M43.417,24.643c6.22,0,6.956,0.023,9.412,0.136c2.271,0.104,3.506,0.483,4.326,0.802
		c1.088,0.423,1.863,0.928,2.679,1.742c0.814,0.815,1.319,1.591,1.742,2.679c0.318,0.821,0.698,2.055,0.802,4.326
		c0.113,2.456,0.137,3.192,0.137,9.413c0,6.22-0.023,6.957-0.137,9.412c-0.104,2.271-0.483,3.505-0.802,4.326
		c-0.423,1.087-0.928,1.863-1.742,2.679c-0.815,0.815-1.591,1.32-2.679,1.742c-0.82,0.319-2.055,0.698-4.326,0.803
		c-2.456,0.111-3.192,0.135-9.412,0.135c-6.221,0-6.958-0.023-9.413-0.135c-2.271-0.104-3.505-0.483-4.325-0.803
		c-1.088-0.422-1.863-0.927-2.679-1.742s-1.32-1.592-1.743-2.679c-0.319-0.821-0.698-2.055-0.803-4.326
		c-0.111-2.455-0.135-3.192-0.135-9.412c0-6.221,0.023-6.957,0.135-9.413c0.104-2.271,0.483-3.505,0.803-4.326
		c0.423-1.088,0.928-1.863,1.743-2.679c0.815-0.814,1.591-1.319,2.679-1.742c0.82-0.318,2.055-0.698,4.325-0.802
		C36.46,24.666,37.197,24.643,43.417,24.643 M43.417,20.445c-6.326,0-7.12,0.026-9.604,0.14c-2.479,0.113-4.173,0.508-5.655,1.083
		c-1.531,0.595-2.83,1.393-4.125,2.687c-1.296,1.296-2.092,2.595-2.688,4.126c-0.576,1.481-0.969,3.176-1.082,5.655
		c-0.113,2.484-0.141,3.277-0.141,9.604c0,6.326,0.027,7.119,0.141,9.604c0.113,2.479,0.506,4.174,1.082,5.655
		c0.596,1.531,1.392,2.831,2.688,4.126c1.295,1.295,2.594,2.091,4.125,2.687c1.482,0.575,3.176,0.97,5.655,1.082
		c2.484,0.114,3.278,0.141,9.604,0.141s7.119-0.026,9.604-0.141c2.48-0.112,4.174-0.507,5.655-1.082
		c1.532-0.596,2.831-1.392,4.126-2.687s2.092-2.595,2.687-4.126c0.576-1.481,0.97-3.176,1.083-5.655
		c0.113-2.484,0.141-3.277,0.141-9.604c0-6.327-0.027-7.12-0.141-9.604c-0.113-2.479-0.507-4.174-1.083-5.655
		c-0.595-1.531-1.392-2.83-2.687-4.126c-1.295-1.294-2.594-2.092-4.126-2.687c-1.481-0.575-3.175-0.97-5.655-1.083
		C50.536,20.472,49.743,20.445,43.417,20.445"/>
	<path fill="#FFFFFF" d="M43.417,31.778c-6.607,0-11.963,5.355-11.963,11.962s5.355,11.962,11.963,11.962
		c6.606,0,11.961-5.355,11.961-11.962S50.023,31.778,43.417,31.778 M43.417,51.505c-4.289,0-7.766-3.477-7.766-7.765
		c0-4.289,3.477-7.766,7.766-7.766c4.288,0,7.764,3.477,7.764,7.766C51.181,48.028,47.705,51.505,43.417,51.505"/>
	<path fill="#FFFFFF" d="M58.647,31.305c0,1.544-1.252,2.796-2.795,2.796c-1.545,0-2.797-1.252-2.797-2.796
		c0-1.543,1.252-2.795,2.797-2.795C57.396,28.51,58.647,29.762,58.647,31.305"/>
</g>
</svg>
