<?xml version="1.0" encoding="utf-8"?>
<!-- Generator: Adobe Illustrator 16.0.0, SVG Export Plug-In . SVG Version: 6.00 Build 0)  -->
<!DOCTYPE svg PUBLIC "-//W3C//DTD SVG 1.1//EN" "http://www.w3.org/Graphics/SVG/1.1/DTD/svg11.dtd">
<svg version="1.1" id="Layer_1" xmlns="http://www.w3.org/2000/svg" xmlns:xlink="http://www.w3.org/1999/xlink" x="0px" y="0px"
	 width="86.834px" height="86.834px" viewBox="4.416 4.25 86.834 86.834" enable-background="new 4.416 4.25 86.834 86.834"
	 xml:space="preserve">
<circle cx="47.833" cy="47.667" r="43.417"/>
<circle fill="none" stroke="#DBC087" stroke-width="0.7209" stroke-miterlimit="10" cx="47.833" cy="47.667" r="38.44"/>
<g>
	<path fill="#E3D4A8" d="M47.832,86.467c-21.395,0-38.8-17.405-38.8-38.801s17.405-38.802,38.8-38.802
		c21.396,0,38.802,17.406,38.802,38.802S69.228,86.467,47.832,86.467z M47.832,9.585c-20.997,0-38.079,17.083-38.079,38.081
		c0,20.999,17.082,38.081,38.079,38.081c20.998,0,38.081-17.082,38.081-38.081C85.913,26.668,68.83,9.585,47.832,9.585z"/>
</g>
<g>
	<path fill="#E3D4A8" d="M47.833,28.893c6.221,0,6.956,0.023,9.412,0.137c2.271,0.104,3.506,0.482,4.326,0.801
		c1.088,0.424,1.863,0.928,2.679,1.742c0.813,0.816,1.319,1.592,1.742,2.68c0.317,0.82,0.698,2.055,0.802,4.326
		c0.113,2.455,0.137,3.191,0.137,9.412c0,6.22-0.022,6.957-0.137,9.412c-0.104,2.271-0.482,3.506-0.802,4.326
		c-0.423,1.088-0.929,1.863-1.742,2.68c-0.815,0.814-1.591,1.32-2.679,1.742c-0.82,0.318-2.055,0.697-4.326,0.803
		c-2.456,0.111-3.191,0.135-9.412,0.135c-6.221,0-6.958-0.022-9.413-0.135c-2.271-0.104-3.505-0.484-4.325-0.803
		c-1.088-0.422-1.863-0.928-2.679-1.742c-0.815-0.816-1.32-1.592-1.743-2.68c-0.319-0.82-0.698-2.055-0.803-4.326
		c-0.111-2.455-0.135-3.191-0.135-9.412c0-6.221,0.023-6.957,0.135-9.412c0.104-2.271,0.483-3.506,0.803-4.326
		c0.423-1.088,0.928-1.863,1.743-2.68c0.815-0.814,1.591-1.318,2.679-1.742c0.82-0.318,2.055-0.697,4.325-0.801
		C40.876,28.917,41.613,28.893,47.833,28.893 M47.833,24.696c-6.326,0-7.12,0.027-9.604,0.141c-2.479,0.113-4.173,0.508-5.655,1.082
		c-1.531,0.596-2.83,1.393-4.125,2.688c-1.296,1.295-2.092,2.594-2.688,4.125c-0.576,1.482-0.969,3.176-1.082,5.656
		c-0.113,2.484-0.141,3.277-0.141,9.604c0,6.327,0.027,7.119,0.141,9.604c0.113,2.48,0.506,4.174,1.082,5.656
		c0.596,1.531,1.392,2.83,2.688,4.125c1.295,1.295,2.594,2.092,4.125,2.688c1.482,0.574,3.176,0.969,5.655,1.082
		c2.484,0.113,3.278,0.141,9.604,0.141s7.119-0.027,9.604-0.141c2.48-0.113,4.174-0.508,5.655-1.082
		c1.532-0.596,2.831-1.393,4.126-2.688s2.092-2.594,2.688-4.125c0.576-1.482,0.97-3.176,1.082-5.656
		c0.113-2.484,0.142-3.277,0.142-9.604c0-6.327-0.026-7.119-0.142-9.604c-0.112-2.48-0.506-4.174-1.082-5.656
		c-0.596-1.531-1.393-2.83-2.688-4.125s-2.594-2.092-4.126-2.688c-1.481-0.574-3.175-0.969-5.655-1.082
		C54.952,24.723,54.159,24.696,47.833,24.696"/>
	<path fill="#E3D4A8" d="M47.833,36.03c-6.607,0-11.963,5.354-11.963,11.961c0,6.607,5.355,11.962,11.963,11.962
		c6.605,0,11.961-5.354,11.961-11.962C59.794,41.385,54.438,36.03,47.833,36.03 M47.833,55.756c-4.289,0-7.766-3.478-7.766-7.766
		c0-4.289,3.477-7.766,7.766-7.766c4.288,0,7.764,3.477,7.764,7.766C55.597,52.279,52.121,55.756,47.833,55.756"/>
	<path fill="#E3D4A8" d="M63.063,35.555c0,1.545-1.252,2.797-2.795,2.797c-1.545,0-2.797-1.252-2.797-2.797
		c0-1.543,1.252-2.795,2.797-2.795C61.812,32.76,63.063,34.012,63.063,35.555"/>
</g>
</svg>
